<svg width="249" height="546" viewBox="0 0 249 546" fill="none" xmlns="http://www.w3.org/2000/svg">
<g opacity="0.3">
<circle cx="246" cy="3" r="3" transform="rotate(90 246 3)" fill="#BECBDF"/>
<circle cx="246" cy="23" r="3" transform="rotate(90 246 23)" fill="#BECBDF"/>
<circle cx="246" cy="43" r="3" transform="rotate(90 246 43)" fill="#BECBDF"/>
<circle cx="246" cy="63" r="3" transform="rotate(90 246 63)" fill="#BECBDF"/>
<circle cx="246" cy="83" r="3" transform="rotate(90 246 83)" fill="#BECBDF"/>
<circle cx="246" cy="103" r="3" transform="rotate(90 246 103)" fill="#BECBDF"/>
<circle cx="246" cy="123" r="3" transform="rotate(90 246 123)" fill="#BECBDF"/>
<circle cx="246" cy="143" r="3" transform="rotate(90 246 143)" fill="#BECBDF"/>
<circle cx="246" cy="163" r="3" transform="rotate(90 246 163)" fill="#BECBDF"/>
<circle cx="246" cy="183" r="3" transform="rotate(90 246 183)" fill="#BECBDF"/>
<circle cx="246" cy="203" r="3" transform="rotate(90 246 203)" fill="#BECBDF"/>
<circle cx="246" cy="223" r="3" transform="rotate(90 246 223)" fill="#BECBDF"/>
<circle cx="246" cy="243" r="3" transform="rotate(90 246 243)" fill="#BECBDF"/>
<circle cx="246" cy="263" r="3" transform="rotate(90 246 263)" fill="#BECBDF"/>
<circle cx="246" cy="283" r="3" transform="rotate(90 246 283)" fill="#BECBDF"/>
<circle cx="246" cy="303" r="3" transform="rotate(90 246 303)" fill="#BECBDF"/>
<circle cx="246" cy="323" r="3" transform="rotate(90 246 323)" fill="#BECBDF"/>
<circle cx="246" cy="343" r="3" transform="rotate(90 246 343)" fill="#BECBDF"/>
<circle cx="246" cy="363" r="3" transform="rotate(90 246 363)" fill="#BECBDF"/>
<circle cx="246" cy="383" r="3" transform="rotate(90 246 383)" fill="#BECBDF"/>
<circle cx="246" cy="403" r="3" transform="rotate(90 246 403)" fill="#BECBDF"/>
<circle cx="246" cy="423" r="3" transform="rotate(90 246 423)" fill="#BECBDF"/>
<circle cx="246" cy="443" r="3" transform="rotate(90 246 443)" fill="#BECBDF"/>
<circle cx="246" cy="463" r="3" transform="rotate(90 246 463)" fill="#BECBDF"/>
<circle cx="246" cy="483" r="3" transform="rotate(90 246 483)" fill="#BECBDF"/>
<circle cx="246" cy="503" r="3" transform="rotate(90 246 503)" fill="#BECBDF"/>
<circle cx="246" cy="523" r="3" transform="rotate(90 246 523)" fill="#BECBDF"/>
<circle cx="246" cy="543" r="3" transform="rotate(90 246 543)" fill="#BECBDF"/>
<circle cx="226" cy="3" r="3" transform="rotate(90 226 3)" fill="#BECBDF"/>
<circle cx="226" cy="23" r="3" transform="rotate(90 226 23)" fill="#BECBDF"/>
<circle cx="226" cy="43" r="3" transform="rotate(90 226 43)" fill="#BECBDF"/>
<circle cx="226" cy="63" r="3" transform="rotate(90 226 63)" fill="#BECBDF"/>
<circle cx="226" cy="83" r="3" transform="rotate(90 226 83)" fill="#BECBDF"/>
<circle cx="226" cy="103" r="3" transform="rotate(90 226 103)" fill="#BECBDF"/>
<circle cx="226" cy="123" r="3" transform="rotate(90 226 123)" fill="#BECBDF"/>
<circle cx="226" cy="143" r="3" transform="rotate(90 226 143)" fill="#BECBDF"/>
<circle cx="226" cy="163" r="3" transform="rotate(90 226 163)" fill="#BECBDF"/>
<circle cx="226" cy="183" r="3" transform="rotate(90 226 183)" fill="#BECBDF"/>
<circle cx="226" cy="203" r="3" transform="rotate(90 226 203)" fill="#BECBDF"/>
<circle cx="226" cy="223" r="3" transform="rotate(90 226 223)" fill="#BECBDF"/>
<circle cx="226" cy="243" r="3" transform="rotate(90 226 243)" fill="#BECBDF"/>
<circle cx="226" cy="263" r="3" transform="rotate(90 226 263)" fill="#BECBDF"/>
<circle cx="226" cy="283" r="3" transform="rotate(90 226 283)" fill="#BECBDF"/>
<circle cx="226" cy="303" r="3" transform="rotate(90 226 303)" fill="#BECBDF"/>
<circle cx="226" cy="323" r="3" transform="rotate(90 226 323)" fill="#BECBDF"/>
<circle cx="226" cy="343" r="3" transform="rotate(90 226 343)" fill="#BECBDF"/>
<circle cx="226" cy="363" r="3" transform="rotate(90 226 363)" fill="#BECBDF"/>
<circle cx="226" cy="383" r="3" transform="rotate(90 226 383)" fill="#BECBDF"/>
<circle cx="226" cy="403" r="3" transform="rotate(90 226 403)" fill="#BECBDF"/>
<circle cx="226" cy="423" r="3" transform="rotate(90 226 423)" fill="#BECBDF"/>
<circle cx="226" cy="443" r="3" transform="rotate(90 226 443)" fill="#BECBDF"/>
<circle cx="226" cy="463" r="3" transform="rotate(90 226 463)" fill="#BECBDF"/>
<circle cx="226" cy="483" r="3" transform="rotate(90 226 483)" fill="#BECBDF"/>
<circle cx="226" cy="503" r="3" transform="rotate(90 226 503)" fill="#BECBDF"/>
<circle cx="226" cy="523" r="3" transform="rotate(90 226 523)" fill="#BECBDF"/>
<circle cx="226" cy="543" r="3" transform="rotate(90 226 543)" fill="#BECBDF"/>
<circle cx="206" cy="3" r="3" transform="rotate(90 206 3)" fill="#BECBDF"/>
<circle cx="206" cy="23" r="3" transform="rotate(90 206 23)" fill="#BECBDF"/>
<circle cx="206" cy="43" r="3" transform="rotate(90 206 43)" fill="#BECBDF"/>
<circle cx="206" cy="63" r="3" transform="rotate(90 206 63)" fill="#BECBDF"/>
<circle cx="206" cy="83" r="3" transform="rotate(90 206 83)" fill="#BECBDF"/>
<circle cx="206" cy="103" r="3" transform="rotate(90 206 103)" fill="#BECBDF"/>
<circle cx="206" cy="123" r="3" transform="rotate(90 206 123)" fill="#BECBDF"/>
<circle cx="206" cy="143" r="3" transform="rotate(90 206 143)" fill="#BECBDF"/>
<circle cx="206" cy="163" r="3" transform="rotate(90 206 163)" fill="#BECBDF"/>
<circle cx="206" cy="183" r="3" transform="rotate(90 206 183)" fill="#BECBDF"/>
<circle cx="206" cy="203" r="3" transform="rotate(90 206 203)" fill="#BECBDF"/>
<circle cx="206" cy="223" r="3" transform="rotate(90 206 223)" fill="#BECBDF"/>
<circle cx="206" cy="243" r="3" transform="rotate(90 206 243)" fill="#BECBDF"/>
<circle cx="206" cy="263" r="3" transform="rotate(90 206 263)" fill="#BECBDF"/>
<circle cx="206" cy="283" r="3" transform="rotate(90 206 283)" fill="#BECBDF"/>
<circle cx="206" cy="303" r="3" transform="rotate(90 206 303)" fill="#BECBDF"/>
<circle cx="206" cy="323" r="3" transform="rotate(90 206 323)" fill="#BECBDF"/>
<circle cx="206" cy="343" r="3" transform="rotate(90 206 343)" fill="#BECBDF"/>
<circle cx="206" cy="363" r="3" transform="rotate(90 206 363)" fill="#BECBDF"/>
<circle cx="206" cy="383" r="3" transform="rotate(90 206 383)" fill="#BECBDF"/>
<circle cx="206" cy="403" r="3" transform="rotate(90 206 403)" fill="#BECBDF"/>
<circle cx="206" cy="423" r="3" transform="rotate(90 206 423)" fill="#BECBDF"/>
<circle cx="206" cy="443" r="3" transform="rotate(90 206 443)" fill="#BECBDF"/>
<circle cx="206" cy="463" r="3" transform="rotate(90 206 463)" fill="#BECBDF"/>
<circle cx="206" cy="483" r="3" transform="rotate(90 206 483)" fill="#BECBDF"/>
<circle cx="206" cy="503" r="3" transform="rotate(90 206 503)" fill="#BECBDF"/>
<circle cx="206" cy="523" r="3" transform="rotate(90 206 523)" fill="#BECBDF"/>
<circle cx="206" cy="543" r="3" transform="rotate(90 206 543)" fill="#BECBDF"/>
<circle cx="186" cy="3" r="3" transform="rotate(90 186 3)" fill="#BECBDF"/>
<circle cx="186" cy="23" r="3" transform="rotate(90 186 23)" fill="#BECBDF"/>
<circle cx="186" cy="43" r="3" transform="rotate(90 186 43)" fill="#BECBDF"/>
<circle cx="186" cy="63" r="3" transform="rotate(90 186 63)" fill="#BECBDF"/>
<circle cx="186" cy="83" r="3" transform="rotate(90 186 83)" fill="#BECBDF"/>
<circle cx="186" cy="103" r="3" transform="rotate(90 186 103)" fill="#BECBDF"/>
<circle cx="186" cy="123" r="3" transform="rotate(90 186 123)" fill="#BECBDF"/>
<circle cx="186" cy="143" r="3" transform="rotate(90 186 143)" fill="#BECBDF"/>
<circle cx="186" cy="163" r="3" transform="rotate(90 186 163)" fill="#BECBDF"/>
<circle cx="186" cy="183" r="3" transform="rotate(90 186 183)" fill="#BECBDF"/>
<circle cx="186" cy="203" r="3" transform="rotate(90 186 203)" fill="#BECBDF"/>
<circle cx="186" cy="223" r="3" transform="rotate(90 186 223)" fill="#BECBDF"/>
<circle cx="186" cy="243" r="3" transform="rotate(90 186 243)" fill="#BECBDF"/>
<circle cx="186" cy="263" r="3" transform="rotate(90 186 263)" fill="#BECBDF"/>
<circle cx="186" cy="283" r="3" transform="rotate(90 186 283)" fill="#BECBDF"/>
<circle cx="186" cy="303" r="3" transform="rotate(90 186 303)" fill="#BECBDF"/>
<circle cx="186" cy="323" r="3" transform="rotate(90 186 323)" fill="#BECBDF"/>
<circle cx="186" cy="343" r="3" transform="rotate(90 186 343)" fill="#BECBDF"/>
<circle cx="186" cy="363" r="3" transform="rotate(90 186 363)" fill="#BECBDF"/>
<circle cx="186" cy="383" r="3" transform="rotate(90 186 383)" fill="#BECBDF"/>
<circle cx="186" cy="403" r="3" transform="rotate(90 186 403)" fill="#BECBDF"/>
<circle cx="186" cy="423" r="3" transform="rotate(90 186 423)" fill="#BECBDF"/>
<circle cx="186" cy="443" r="3" transform="rotate(90 186 443)" fill="#BECBDF"/>
<circle cx="186" cy="463" r="3" transform="rotate(90 186 463)" fill="#BECBDF"/>
<circle cx="186" cy="483" r="3" transform="rotate(90 186 483)" fill="#BECBDF"/>
<circle cx="186" cy="503" r="3" transform="rotate(90 186 503)" fill="#BECBDF"/>
<circle cx="186" cy="523" r="3" transform="rotate(90 186 523)" fill="#BECBDF"/>
<circle cx="186" cy="543" r="3" transform="rotate(90 186 543)" fill="#BECBDF"/>
<circle cx="166" cy="3" r="3" transform="rotate(90 166 3)" fill="#BECBDF"/>
<circle cx="166" cy="23" r="3" transform="rotate(90 166 23)" fill="#BECBDF"/>
<circle cx="166" cy="43" r="3" transform="rotate(90 166 43)" fill="#BECBDF"/>
<circle cx="166" cy="63" r="3" transform="rotate(90 166 63)" fill="#BECBDF"/>
<circle cx="166" cy="83" r="3" transform="rotate(90 166 83)" fill="#BECBDF"/>
<circle cx="166" cy="103" r="3" transform="rotate(90 166 103)" fill="#BECBDF"/>
<circle cx="166" cy="123" r="3" transform="rotate(90 166 123)" fill="#BECBDF"/>
<circle cx="166" cy="143" r="3" transform="rotate(90 166 143)" fill="#BECBDF"/>
<circle cx="166" cy="163" r="3" transform="rotate(90 166 163)" fill="#BECBDF"/>
<circle cx="166" cy="183" r="3" transform="rotate(90 166 183)" fill="#BECBDF"/>
<circle cx="166" cy="203" r="3" transform="rotate(90 166 203)" fill="#BECBDF"/>
<circle cx="166" cy="223" r="3" transform="rotate(90 166 223)" fill="#BECBDF"/>
<circle cx="166" cy="243" r="3" transform="rotate(90 166 243)" fill="#BECBDF"/>
<circle cx="166" cy="263" r="3" transform="rotate(90 166 263)" fill="#BECBDF"/>
<circle cx="166" cy="283" r="3" transform="rotate(90 166 283)" fill="#BECBDF"/>
<circle cx="166" cy="303" r="3" transform="rotate(90 166 303)" fill="#BECBDF"/>
<circle cx="166" cy="323" r="3" transform="rotate(90 166 323)" fill="#BECBDF"/>
<circle cx="166" cy="343" r="3" transform="rotate(90 166 343)" fill="#BECBDF"/>
<circle cx="166" cy="363" r="3" transform="rotate(90 166 363)" fill="#BECBDF"/>
<circle cx="166" cy="383" r="3" transform="rotate(90 166 383)" fill="#BECBDF"/>
<circle cx="166" cy="403" r="3" transform="rotate(90 166 403)" fill="#BECBDF"/>
<circle cx="166" cy="423" r="3" transform="rotate(90 166 423)" fill="#BECBDF"/>
<circle cx="166" cy="443" r="3" transform="rotate(90 166 443)" fill="#BECBDF"/>
<circle cx="166" cy="463" r="3" transform="rotate(90 166 463)" fill="#BECBDF"/>
<circle cx="166" cy="483" r="3" transform="rotate(90 166 483)" fill="#BECBDF"/>
<circle cx="166" cy="503" r="3" transform="rotate(90 166 503)" fill="#BECBDF"/>
<circle cx="166" cy="523" r="3" transform="rotate(90 166 523)" fill="#BECBDF"/>
<circle cx="166" cy="543" r="3" transform="rotate(90 166 543)" fill="#BECBDF"/>
<circle cx="146" cy="3" r="3" transform="rotate(90 146 3)" fill="#BECBDF"/>
<circle cx="146" cy="23" r="3" transform="rotate(90 146 23)" fill="#BECBDF"/>
<circle cx="146" cy="43" r="3" transform="rotate(90 146 43)" fill="#BECBDF"/>
<circle cx="146" cy="63" r="3" transform="rotate(90 146 63)" fill="#BECBDF"/>
<circle cx="146" cy="83" r="3" transform="rotate(90 146 83)" fill="#BECBDF"/>
<circle cx="146" cy="103" r="3" transform="rotate(90 146 103)" fill="#BECBDF"/>
<circle cx="146" cy="123" r="3" transform="rotate(90 146 123)" fill="#BECBDF"/>
<circle cx="146" cy="143" r="3" transform="rotate(90 146 143)" fill="#BECBDF"/>
<circle cx="146" cy="163" r="3" transform="rotate(90 146 163)" fill="#BECBDF"/>
<circle cx="146" cy="183" r="3" transform="rotate(90 146 183)" fill="#BECBDF"/>
<circle cx="146" cy="203" r="3" transform="rotate(90 146 203)" fill="#BECBDF"/>
<circle cx="146" cy="223" r="3" transform="rotate(90 146 223)" fill="#BECBDF"/>
<circle cx="146" cy="243" r="3" transform="rotate(90 146 243)" fill="#BECBDF"/>
<circle cx="146" cy="263" r="3" transform="rotate(90 146 263)" fill="#BECBDF"/>
<circle cx="146" cy="283" r="3" transform="rotate(90 146 283)" fill="#BECBDF"/>
<circle cx="146" cy="303" r="3" transform="rotate(90 146 303)" fill="#BECBDF"/>
<circle cx="146" cy="323" r="3" transform="rotate(90 146 323)" fill="#BECBDF"/>
<circle cx="146" cy="343" r="3" transform="rotate(90 146 343)" fill="#BECBDF"/>
<circle cx="146" cy="363" r="3" transform="rotate(90 146 363)" fill="#BECBDF"/>
<circle cx="146" cy="383" r="3" transform="rotate(90 146 383)" fill="#BECBDF"/>
<circle cx="146" cy="403" r="3" transform="rotate(90 146 403)" fill="#BECBDF"/>
<circle cx="146" cy="423" r="3" transform="rotate(90 146 423)" fill="#BECBDF"/>
<circle cx="146" cy="443" r="3" transform="rotate(90 146 443)" fill="#BECBDF"/>
<circle cx="146" cy="463" r="3" transform="rotate(90 146 463)" fill="#BECBDF"/>
<circle cx="146" cy="483" r="3" transform="rotate(90 146 483)" fill="#BECBDF"/>
<circle cx="146" cy="503" r="3" transform="rotate(90 146 503)" fill="#BECBDF"/>
<circle cx="146" cy="523" r="3" transform="rotate(90 146 523)" fill="#BECBDF"/>
<circle cx="146" cy="543" r="3" transform="rotate(90 146 543)" fill="#BECBDF"/>
<circle cx="126" cy="3" r="3" transform="rotate(90 126 3)" fill="#BECBDF"/>
<circle cx="126" cy="23" r="3" transform="rotate(90 126 23)" fill="#BECBDF"/>
<circle cx="126" cy="43" r="3" transform="rotate(90 126 43)" fill="#BECBDF"/>
<circle cx="126" cy="63" r="3" transform="rotate(90 126 63)" fill="#BECBDF"/>
<circle cx="126" cy="83" r="3" transform="rotate(90 126 83)" fill="#BECBDF"/>
<circle cx="126" cy="103" r="3" transform="rotate(90 126 103)" fill="#BECBDF"/>
<circle cx="126" cy="123" r="3" transform="rotate(90 126 123)" fill="#BECBDF"/>
<circle cx="126" cy="143" r="3" transform="rotate(90 126 143)" fill="#BECBDF"/>
<circle cx="126" cy="163" r="3" transform="rotate(90 126 163)" fill="#BECBDF"/>
<circle cx="126" cy="183" r="3" transform="rotate(90 126 183)" fill="#BECBDF"/>
<circle cx="126" cy="203" r="3" transform="rotate(90 126 203)" fill="#BECBDF"/>
<circle cx="126" cy="223" r="3" transform="rotate(90 126 223)" fill="#BECBDF"/>
<circle cx="126" cy="243" r="3" transform="rotate(90 126 243)" fill="#BECBDF"/>
<circle cx="126" cy="263" r="3" transform="rotate(90 126 263)" fill="#BECBDF"/>
<circle cx="126" cy="283" r="3" transform="rotate(90 126 283)" fill="#BECBDF"/>
<circle cx="126" cy="303" r="3" transform="rotate(90 126 303)" fill="#BECBDF"/>
<circle cx="126" cy="323" r="3" transform="rotate(90 126 323)" fill="#BECBDF"/>
<circle cx="126" cy="343" r="3" transform="rotate(90 126 343)" fill="#BECBDF"/>
<circle cx="126" cy="363" r="3" transform="rotate(90 126 363)" fill="#BECBDF"/>
<circle cx="126" cy="383" r="3" transform="rotate(90 126 383)" fill="#BECBDF"/>
<circle cx="126" cy="403" r="3" transform="rotate(90 126 403)" fill="#BECBDF"/>
<circle cx="126" cy="423" r="3" transform="rotate(90 126 423)" fill="#BECBDF"/>
<circle cx="126" cy="443" r="3" transform="rotate(90 126 443)" fill="#BECBDF"/>
<circle cx="126" cy="463" r="3" transform="rotate(90 126 463)" fill="#BECBDF"/>
<circle cx="126" cy="483" r="3" transform="rotate(90 126 483)" fill="#BECBDF"/>
<circle cx="126" cy="503" r="3" transform="rotate(90 126 503)" fill="#BECBDF"/>
<circle cx="126" cy="523" r="3" transform="rotate(90 126 523)" fill="#BECBDF"/>
<circle cx="126" cy="543" r="3" transform="rotate(90 126 543)" fill="#BECBDF"/>
<circle cx="106" cy="3" r="3" transform="rotate(90 106 3)" fill="#BECBDF"/>
<circle cx="106" cy="23" r="3" transform="rotate(90 106 23)" fill="#BECBDF"/>
<circle cx="106" cy="43" r="3" transform="rotate(90 106 43)" fill="#BECBDF"/>
<circle cx="106" cy="63" r="3" transform="rotate(90 106 63)" fill="#BECBDF"/>
<circle cx="106" cy="83" r="3" transform="rotate(90 106 83)" fill="#BECBDF"/>
<circle cx="106" cy="103" r="3" transform="rotate(90 106 103)" fill="#BECBDF"/>
<circle cx="106" cy="123" r="3" transform="rotate(90 106 123)" fill="#BECBDF"/>
<circle cx="106" cy="143" r="3" transform="rotate(90 106 143)" fill="#BECBDF"/>
<circle cx="106" cy="163" r="3" transform="rotate(90 106 163)" fill="#BECBDF"/>
<circle cx="106" cy="183" r="3" transform="rotate(90 106 183)" fill="#BECBDF"/>
<circle cx="106" cy="203" r="3" transform="rotate(90 106 203)" fill="#BECBDF"/>
<circle cx="106" cy="223" r="3" transform="rotate(90 106 223)" fill="#BECBDF"/>
<circle cx="106" cy="243" r="3" transform="rotate(90 106 243)" fill="#BECBDF"/>
<circle cx="106" cy="263" r="3" transform="rotate(90 106 263)" fill="#BECBDF"/>
<circle cx="106" cy="283" r="3" transform="rotate(90 106 283)" fill="#BECBDF"/>
<circle cx="106" cy="303" r="3" transform="rotate(90 106 303)" fill="#BECBDF"/>
<circle cx="106" cy="323" r="3" transform="rotate(90 106 323)" fill="#BECBDF"/>
<circle cx="106" cy="343" r="3" transform="rotate(90 106 343)" fill="#BECBDF"/>
<circle cx="106" cy="363" r="3" transform="rotate(90 106 363)" fill="#BECBDF"/>
<circle cx="106" cy="383" r="3" transform="rotate(90 106 383)" fill="#BECBDF"/>
<circle cx="106" cy="403" r="3" transform="rotate(90 106 403)" fill="#BECBDF"/>
<circle cx="106" cy="423" r="3" transform="rotate(90 106 423)" fill="#BECBDF"/>
<circle cx="106" cy="443" r="3" transform="rotate(90 106 443)" fill="#BECBDF"/>
<circle cx="106" cy="463" r="3" transform="rotate(90 106 463)" fill="#BECBDF"/>
<circle cx="106" cy="483" r="3" transform="rotate(90 106 483)" fill="#BECBDF"/>
<circle cx="106" cy="503" r="3" transform="rotate(90 106 503)" fill="#BECBDF"/>
<circle cx="106" cy="523" r="3" transform="rotate(90 106 523)" fill="#BECBDF"/>
<circle cx="106" cy="543" r="3" transform="rotate(90 106 543)" fill="#BECBDF"/>
<circle cx="86" cy="3" r="3" transform="rotate(90 86 3)" fill="#BECBDF"/>
<circle cx="86" cy="23" r="3" transform="rotate(90 86 23)" fill="#BECBDF"/>
<circle cx="86" cy="43" r="3" transform="rotate(90 86 43)" fill="#BECBDF"/>
<circle cx="86" cy="63" r="3" transform="rotate(90 86 63)" fill="#BECBDF"/>
<circle cx="86" cy="83" r="3" transform="rotate(90 86 83)" fill="#BECBDF"/>
<circle cx="86" cy="103" r="3" transform="rotate(90 86 103)" fill="#BECBDF"/>
<circle cx="86" cy="123" r="3" transform="rotate(90 86 123)" fill="#BECBDF"/>
<circle cx="86" cy="143" r="3" transform="rotate(90 86 143)" fill="#BECBDF"/>
<circle cx="86" cy="163" r="3" transform="rotate(90 86 163)" fill="#BECBDF"/>
<circle cx="86" cy="183" r="3" transform="rotate(90 86 183)" fill="#BECBDF"/>
<circle cx="86" cy="203" r="3" transform="rotate(90 86 203)" fill="#BECBDF"/>
<circle cx="86" cy="223" r="3" transform="rotate(90 86 223)" fill="#BECBDF"/>
<circle cx="86" cy="243" r="3" transform="rotate(90 86 243)" fill="#BECBDF"/>
<circle cx="86" cy="263" r="3" transform="rotate(90 86 263)" fill="#BECBDF"/>
<circle cx="86" cy="283" r="3" transform="rotate(90 86 283)" fill="#BECBDF"/>
<circle cx="86" cy="303" r="3" transform="rotate(90 86 303)" fill="#BECBDF"/>
<circle cx="86" cy="323" r="3" transform="rotate(90 86 323)" fill="#BECBDF"/>
<circle cx="86" cy="343" r="3" transform="rotate(90 86 343)" fill="#BECBDF"/>
<circle cx="86" cy="363" r="3" transform="rotate(90 86 363)" fill="#BECBDF"/>
<circle cx="86" cy="383" r="3" transform="rotate(90 86 383)" fill="#BECBDF"/>
<circle cx="86" cy="403" r="3" transform="rotate(90 86 403)" fill="#BECBDF"/>
<circle cx="86" cy="423" r="3" transform="rotate(90 86 423)" fill="#BECBDF"/>
<circle cx="86" cy="443" r="3" transform="rotate(90 86 443)" fill="#BECBDF"/>
<circle cx="86" cy="463" r="3" transform="rotate(90 86 463)" fill="#BECBDF"/>
<circle cx="86" cy="483" r="3" transform="rotate(90 86 483)" fill="#BECBDF"/>
<circle cx="86" cy="503" r="3" transform="rotate(90 86 503)" fill="#BECBDF"/>
<circle cx="86" cy="523" r="3" transform="rotate(90 86 523)" fill="#BECBDF"/>
<circle cx="86" cy="543" r="3" transform="rotate(90 86 543)" fill="#BECBDF"/>
<circle cx="66" cy="3" r="3" transform="rotate(90 66 3)" fill="#BECBDF"/>
<circle cx="66" cy="23" r="3" transform="rotate(90 66 23)" fill="#BECBDF"/>
<circle cx="66" cy="43" r="3" transform="rotate(90 66 43)" fill="#BECBDF"/>
<circle cx="66" cy="63" r="3" transform="rotate(90 66 63)" fill="#BECBDF"/>
<circle cx="66" cy="83" r="3" transform="rotate(90 66 83)" fill="#BECBDF"/>
<circle cx="66" cy="103" r="3" transform="rotate(90 66 103)" fill="#BECBDF"/>
<circle cx="66" cy="123" r="3" transform="rotate(90 66 123)" fill="#BECBDF"/>
<circle cx="66" cy="143" r="3" transform="rotate(90 66 143)" fill="#BECBDF"/>
<circle cx="66" cy="163" r="3" transform="rotate(90 66 163)" fill="#BECBDF"/>
<circle cx="66" cy="183" r="3" transform="rotate(90 66 183)" fill="#BECBDF"/>
<circle cx="66" cy="203" r="3" transform="rotate(90 66 203)" fill="#BECBDF"/>
<circle cx="66" cy="223" r="3" transform="rotate(90 66 223)" fill="#BECBDF"/>
<circle cx="66" cy="243" r="3" transform="rotate(90 66 243)" fill="#BECBDF"/>
<circle cx="66" cy="263" r="3" transform="rotate(90 66 263)" fill="#BECBDF"/>
<circle cx="66" cy="283" r="3" transform="rotate(90 66 283)" fill="#BECBDF"/>
<circle cx="66" cy="303" r="3" transform="rotate(90 66 303)" fill="#BECBDF"/>
<circle cx="66" cy="323" r="3" transform="rotate(90 66 323)" fill="#BECBDF"/>
<circle cx="66" cy="343" r="3" transform="rotate(90 66 343)" fill="#BECBDF"/>
<circle cx="66" cy="363" r="3" transform="rotate(90 66 363)" fill="#BECBDF"/>
<circle cx="66" cy="383" r="3" transform="rotate(90 66 383)" fill="#BECBDF"/>
<circle cx="66" cy="403" r="3" transform="rotate(90 66 403)" fill="#BECBDF"/>
<circle cx="66" cy="423" r="3" transform="rotate(90 66 423)" fill="#BECBDF"/>
<circle cx="66" cy="443" r="3" transform="rotate(90 66 443)" fill="#BECBDF"/>
<circle cx="66" cy="463" r="3" transform="rotate(90 66 463)" fill="#BECBDF"/>
<circle cx="66" cy="483" r="3" transform="rotate(90 66 483)" fill="#BECBDF"/>
<circle cx="66" cy="503" r="3" transform="rotate(90 66 503)" fill="#BECBDF"/>
<circle cx="66" cy="523" r="3" transform="rotate(90 66 523)" fill="#BECBDF"/>
<circle cx="66" cy="543" r="3" transform="rotate(90 66 543)" fill="#BECBDF"/>
<circle cx="46" cy="3" r="3" transform="rotate(90 46 3)" fill="#BECBDF"/>
<circle cx="46" cy="23" r="3" transform="rotate(90 46 23)" fill="#BECBDF"/>
<circle cx="46" cy="43" r="3" transform="rotate(90 46 43)" fill="#BECBDF"/>
<circle cx="46" cy="63" r="3" transform="rotate(90 46 63)" fill="#BECBDF"/>
<circle cx="46" cy="83" r="3" transform="rotate(90 46 83)" fill="#BECBDF"/>
<circle cx="46" cy="103" r="3" transform="rotate(90 46 103)" fill="#BECBDF"/>
<circle cx="46" cy="123" r="3" transform="rotate(90 46 123)" fill="#BECBDF"/>
<circle cx="46" cy="143" r="3" transform="rotate(90 46 143)" fill="#BECBDF"/>
<circle cx="46" cy="163" r="3" transform="rotate(90 46 163)" fill="#BECBDF"/>
<circle cx="46" cy="183" r="3" transform="rotate(90 46 183)" fill="#BECBDF"/>
<circle cx="46" cy="203" r="3" transform="rotate(90 46 203)" fill="#BECBDF"/>
<circle cx="46" cy="223" r="3" transform="rotate(90 46 223)" fill="#BECBDF"/>
<circle cx="46" cy="243" r="3" transform="rotate(90 46 243)" fill="#BECBDF"/>
<circle cx="46" cy="263" r="3" transform="rotate(90 46 263)" fill="#BECBDF"/>
<circle cx="46" cy="283" r="3" transform="rotate(90 46 283)" fill="#BECBDF"/>
<circle cx="46" cy="303" r="3" transform="rotate(90 46 303)" fill="#BECBDF"/>
<circle cx="46" cy="323" r="3" transform="rotate(90 46 323)" fill="#BECBDF"/>
<circle cx="46" cy="343" r="3" transform="rotate(90 46 343)" fill="#BECBDF"/>
<circle cx="46" cy="363" r="3" transform="rotate(90 46 363)" fill="#BECBDF"/>
<circle cx="46" cy="383" r="3" transform="rotate(90 46 383)" fill="#BECBDF"/>
<circle cx="46" cy="403" r="3" transform="rotate(90 46 403)" fill="#BECBDF"/>
<circle cx="46" cy="423" r="3" transform="rotate(90 46 423)" fill="#BECBDF"/>
<circle cx="46" cy="443" r="3" transform="rotate(90 46 443)" fill="#BECBDF"/>
<circle cx="46" cy="463" r="3" transform="rotate(90 46 463)" fill="#BECBDF"/>
<circle cx="46" cy="483" r="3" transform="rotate(90 46 483)" fill="#BECBDF"/>
<circle cx="46" cy="503" r="3" transform="rotate(90 46 503)" fill="#BECBDF"/>
<circle cx="46" cy="523" r="3" transform="rotate(90 46 523)" fill="#BECBDF"/>
<circle cx="46" cy="543" r="3" transform="rotate(90 46 543)" fill="#BECBDF"/>
<circle cx="26" cy="3" r="3" transform="rotate(90 26 3)" fill="#BECBDF"/>
<circle cx="26" cy="23" r="3" transform="rotate(90 26 23)" fill="#BECBDF"/>
<circle cx="26" cy="43" r="3" transform="rotate(90 26 43)" fill="#BECBDF"/>
<circle cx="26" cy="63" r="3" transform="rotate(90 26 63)" fill="#BECBDF"/>
<circle cx="26" cy="83" r="3" transform="rotate(90 26 83)" fill="#BECBDF"/>
<circle cx="26" cy="103" r="3" transform="rotate(90 26 103)" fill="#BECBDF"/>
<circle cx="26" cy="123" r="3" transform="rotate(90 26 123)" fill="#BECBDF"/>
<circle cx="26" cy="143" r="3" transform="rotate(90 26 143)" fill="#BECBDF"/>
<circle cx="26" cy="163" r="3" transform="rotate(90 26 163)" fill="#BECBDF"/>
<circle cx="26" cy="183" r="3" transform="rotate(90 26 183)" fill="#BECBDF"/>
<circle cx="26" cy="203" r="3" transform="rotate(90 26 203)" fill="#BECBDF"/>
<circle cx="26" cy="223" r="3" transform="rotate(90 26 223)" fill="#BECBDF"/>
<circle cx="26" cy="243" r="3" transform="rotate(90 26 243)" fill="#BECBDF"/>
<circle cx="26" cy="263" r="3" transform="rotate(90 26 263)" fill="#BECBDF"/>
<circle cx="26" cy="283" r="3" transform="rotate(90 26 283)" fill="#BECBDF"/>
<circle cx="26" cy="303" r="3" transform="rotate(90 26 303)" fill="#BECBDF"/>
<circle cx="26" cy="323" r="3" transform="rotate(90 26 323)" fill="#BECBDF"/>
<circle cx="26" cy="343" r="3" transform="rotate(90 26 343)" fill="#BECBDF"/>
<circle cx="26" cy="363" r="3" transform="rotate(90 26 363)" fill="#BECBDF"/>
<circle cx="26" cy="383" r="3" transform="rotate(90 26 383)" fill="#BECBDF"/>
<circle cx="26" cy="403" r="3" transform="rotate(90 26 403)" fill="#BECBDF"/>
<circle cx="26" cy="423" r="3" transform="rotate(90 26 423)" fill="#BECBDF"/>
<circle cx="26" cy="443" r="3" transform="rotate(90 26 443)" fill="#BECBDF"/>
<circle cx="26" cy="463" r="3" transform="rotate(90 26 463)" fill="#BECBDF"/>
<circle cx="26" cy="483" r="3" transform="rotate(90 26 483)" fill="#BECBDF"/>
<circle cx="26" cy="503" r="3" transform="rotate(90 26 503)" fill="#BECBDF"/>
<circle cx="26" cy="523" r="3" transform="rotate(90 26 523)" fill="#BECBDF"/>
<circle cx="26" cy="543" r="3" transform="rotate(90 26 543)" fill="#BECBDF"/>
<circle cx="6" cy="3" r="3" transform="rotate(90 6 3)" fill="#BECBDF"/>
<circle cx="6" cy="23" r="3" transform="rotate(90 6 23)" fill="#BECBDF"/>
<circle cx="6" cy="43" r="3" transform="rotate(90 6 43)" fill="#BECBDF"/>
<circle cx="6" cy="63" r="3" transform="rotate(90 6 63)" fill="#BECBDF"/>
<circle cx="6" cy="83" r="3" transform="rotate(90 6 83)" fill="#BECBDF"/>
<circle cx="6" cy="103" r="3" transform="rotate(90 6 103)" fill="#BECBDF"/>
<circle cx="6" cy="123" r="3" transform="rotate(90 6 123)" fill="#BECBDF"/>
<circle cx="6" cy="143" r="3" transform="rotate(90 6 143)" fill="#BECBDF"/>
<circle cx="6" cy="163" r="3" transform="rotate(90 6 163)" fill="#BECBDF"/>
<circle cx="6" cy="183" r="3" transform="rotate(90 6 183)" fill="#BECBDF"/>
<circle cx="6" cy="203" r="3" transform="rotate(90 6 203)" fill="#BECBDF"/>
<circle cx="6" cy="223" r="3" transform="rotate(90 6 223)" fill="#BECBDF"/>
<circle cx="6" cy="243" r="3" transform="rotate(90 6 243)" fill="#BECBDF"/>
<circle cx="6" cy="263" r="3" transform="rotate(90 6 263)" fill="#BECBDF"/>
<circle cx="6" cy="283" r="3" transform="rotate(90 6 283)" fill="#BECBDF"/>
<circle cx="6" cy="303" r="3" transform="rotate(90 6 303)" fill="#BECBDF"/>
<circle cx="6" cy="323" r="3" transform="rotate(90 6 323)" fill="#BECBDF"/>
<circle cx="6" cy="343" r="3" transform="rotate(90 6 343)" fill="#BECBDF"/>
<circle cx="6" cy="363" r="3" transform="rotate(90 6 363)" fill="#BECBDF"/>
<circle cx="6" cy="383" r="3" transform="rotate(90 6 383)" fill="#BECBDF"/>
<circle cx="6" cy="403" r="3" transform="rotate(90 6 403)" fill="#BECBDF"/>
<circle cx="6" cy="423" r="3" transform="rotate(90 6 423)" fill="#BECBDF"/>
<circle cx="6" cy="443" r="3" transform="rotate(90 6 443)" fill="#BECBDF"/>
<circle cx="6" cy="463" r="3" transform="rotate(90 6 463)" fill="#BECBDF"/>
<circle cx="6" cy="483" r="3" transform="rotate(90 6 483)" fill="#BECBDF"/>
<circle cx="6" cy="503" r="3" transform="rotate(90 6 503)" fill="#BECBDF"/>
<circle cx="6" cy="523" r="3" transform="rotate(90 6 523)" fill="#BECBDF"/>
<circle cx="6" cy="543" r="3" transform="rotate(90 6 543)" fill="#BECBDF"/>
</g>
</svg>
