<svg width="414" height="414" viewBox="0 0 414 414" fill="none" xmlns="http://www.w3.org/2000/svg">
<g clip-path="url(#clip0)">
<path d="M413.983 241.924C413.988 285.495 414.011 329.067 413.977 372.638C413.96 391.902 401.264 408.203 382.586 412.847C379.442 413.629 376.108 413.933 372.858 413.938C326.668 414.011 280.472 414 234.275 414C229.901 414 228.023 412.656 226.606 408.855C219.572 389.901 212.499 370.963 205.442 352.019C205.375 351.845 205.285 351.682 205.217 351.508C202.395 344.237 202.395 344.232 194.461 344.232C143.491 344.232 92.5157 344.277 41.5458 344.22C22.3612 344.198 6.12841 331.76 1.41096 313.469C0.488834 309.882 0.0558858 306.069 0.0502631 302.364C-0.0115867 215.406 -0.0172094 128.449 0.033395 41.4968C0.0446404 18.3925 18.4028 0.0507424 41.4615 0.028251C87.3765 -0.0223547 133.286 0.0113824 179.201 0.0113824C184.25 0.0113824 185.999 1.30464 187.646 6.12343C194.365 25.7866 201.085 45.4497 207.809 65.1129C209.406 69.7798 209.412 69.7798 214.309 69.7798C266.404 69.7742 318.504 69.8136 370.598 69.7236C385.509 69.6955 397.576 75.1834 406.415 87.2726C411.599 94.363 414.039 102.387 414 111.215C413.927 127.049 413.983 142.888 413.983 158.722C413.983 186.454 413.983 214.186 413.983 241.924ZM12.9206 172.082C12.915 172.082 12.9094 172.082 12.9038 172.082C12.9038 213.405 12.8982 254.727 12.915 296.055C12.915 299.704 12.6901 303.421 13.2917 306.986C15.8332 322.021 27.2698 331.434 42.6367 331.44C99.2292 331.451 155.816 331.451 212.409 331.451C234.523 331.451 256.637 331.451 278.751 331.451C284.07 331.451 284.846 330.416 283.159 325.491C267.264 278.99 251.374 232.489 235.462 185.987C216.221 129.748 196.963 73.5134 177.717 17.2792C176.26 13.0227 176.137 12.9046 171.785 12.9046C128.495 12.9046 85.2062 12.8934 41.9169 12.9383C25.3187 12.9496 12.9431 25.3311 12.9319 41.9242C12.9038 85.3102 12.9206 128.696 12.9206 172.082ZM401.197 241.693C401.197 198.774 401.208 155.855 401.191 112.935C401.186 94.6947 389.114 82.6731 370.851 82.6674C339.364 82.6562 307.877 82.6618 276.39 82.6618C257.272 82.6618 238.155 82.6506 219.038 82.6674C214.618 82.6731 214.039 83.5221 215.456 87.6718C217.88 94.7566 220.314 101.836 222.743 108.921C229.997 130.085 237.272 151.238 244.453 172.425C245.172 174.545 246.184 175.208 248.36 174.849C250.469 174.5 252.65 174.477 254.798 174.472C267.168 174.444 279.538 174.489 291.908 174.455C295.81 174.444 296.485 173.718 296.547 169.85C296.581 167.601 296.496 165.346 296.603 163.102C296.777 159.504 299.448 157.047 303.036 157.047C306.471 157.052 309.192 159.712 309.316 163.266C309.384 165.138 309.339 167.016 309.344 168.888C309.361 173.949 309.98 174.506 315.029 174.5C333.769 174.461 352.504 174.449 371.245 174.455C376.254 174.455 379.071 176.8 379.111 180.854C379.144 184.919 376.305 187.286 371.34 187.292C366.184 187.303 361.034 187.331 355.878 187.269C353.471 187.241 352.105 188.141 351.514 190.609C350.8 193.606 349.85 196.564 348.759 199.449C340.888 220.338 329.108 238.96 315.495 256.509C312.645 260.181 312.605 260.653 315.99 263.993C326.865 274.716 337.789 285.388 348.692 296.077C349.361 296.735 350.053 297.365 350.71 298.034C353.572 300.947 353.825 304.658 351.357 307.312C348.793 310.067 344.846 310.163 341.888 307.295C330.592 296.342 319.319 285.355 308.118 274.3C303.862 270.1 304.025 270.06 299.611 274.3C295.563 278.191 291.509 282.105 287.168 285.664C284.88 287.536 284.407 289.251 285.346 291.939C290.283 306.075 295.029 320.284 300.016 334.403C301.219 337.816 300.753 340.436 298.363 343.141C283.283 360.189 268.265 377.294 253.325 394.466C252.088 395.889 251.548 397.919 250.682 399.673C252.566 400.196 254.45 401.163 256.333 401.169C294.658 401.253 332.988 401.247 371.312 401.225C388.956 401.214 401.186 388.961 401.191 371.306C401.202 328.094 401.191 284.894 401.197 241.693ZM294.624 187.281C294.624 187.286 294.624 187.286 294.624 187.292C293.876 187.292 293.123 187.292 292.375 187.292C279.819 187.286 267.264 187.264 254.708 187.292C250.885 187.303 249.957 188.372 251.042 191.537C260.078 218.027 269.147 244.505 278.223 270.977C279.117 273.592 280.86 274.205 282.912 272.4C286.488 269.245 289.873 265.866 293.319 262.565C294.646 261.294 294.573 259.984 293.404 258.624C291.998 256.993 290.632 255.329 289.254 253.67C282.552 245.59 275.833 237.521 271.29 227.94C269.429 224.009 270.609 220.349 274.14 218.662C277.514 217.048 281.062 218.471 282.889 222.339C287.444 231.949 294.365 239.849 301.259 247.749C303.373 250.172 304.458 250.021 306.387 247.518C316.834 233.973 325.869 219.55 333.016 203.998C334.967 199.752 336.451 195.293 338.121 190.924C338.92 188.833 338.037 187.68 335.923 187.388C335.091 187.275 334.242 187.292 333.398 187.292C320.472 187.275 307.551 187.281 294.624 187.281ZM247.494 344.248C247.494 344.243 247.494 344.243 247.494 344.237C238.88 344.237 230.272 344.192 221.658 344.26C217.767 344.288 216.868 345.615 218.189 349.135C223.171 362.444 228.164 375.753 233.196 389.046C235.254 394.483 236.137 394.551 240.056 390.041C249.024 379.729 258.048 369.473 267.033 359.177C270.109 355.652 273.235 352.165 276.181 348.533C278.026 346.256 277.317 344.732 274.444 344.333C273.707 344.232 272.948 344.248 272.201 344.248C263.969 344.248 255.732 344.248 247.494 344.248Z" fill="black"/>
<path d="M119.674 187.275C114.332 187.275 108.991 187.382 103.655 187.23C100.703 187.146 99.1171 188.158 98.0994 191.093C93.2189 205.251 88.1022 219.325 83.0811 233.433C82.114 236.16 80.9501 238.741 77.7621 239.416C75.4399 239.911 73.2583 239.45 71.5771 237.628C69.5866 235.463 69.4292 232.961 70.3851 230.29C72.5329 224.302 74.6752 218.308 76.8174 212.314C88.9288 178.385 101.051 144.451 113.146 110.517C114.045 107.987 115.35 105.98 118.212 105.457C122.361 104.703 124.97 106.238 126.438 110.349C133.236 129.382 140.028 148.421 146.82 167.454C154.276 188.343 161.737 209.232 169.182 230.127C171.127 235.587 167.714 240.304 162.378 239.523C159.274 239.067 157.835 236.874 156.874 234.158C153.466 224.543 150.025 214.934 146.601 205.324C144.875 200.472 143.081 195.647 141.479 190.756C140.652 188.242 139.207 187.179 136.536 187.241C130.919 187.371 125.291 187.281 119.674 187.281C119.674 187.281 119.674 187.281 119.674 187.275ZM119.949 174.494C119.949 174.483 119.949 174.472 119.949 174.466C123.413 174.466 126.882 174.511 130.346 174.455C134.192 174.387 135.08 173.134 133.804 169.54C130.115 159.133 126.432 148.725 122.603 138.367C122.159 137.17 120.81 136.304 119.882 135.286C118.92 136.315 117.515 137.181 117.059 138.395C113.157 148.921 109.407 159.504 105.668 170.092C104.509 173.375 105.162 174.342 108.709 174.466C112.454 174.59 116.205 174.494 119.949 174.494Z" fill="black"/>
</g>
<defs>
<clipPath id="clip0">
<rect width="414" height="414" fill="white"/>
</clipPath>
</defs>
</svg>
