<svg width="414" height="415" viewBox="0 0 414 415" fill="none" xmlns="http://www.w3.org/2000/svg">
<path d="M280.95 48.4601C293.99 48.4601 306.3 48.4601 318.61 48.4601C328.14 48.4601 329.57 49.8901 329.57 59.4601C329.57 71.7701 329.57 84.08 329.57 97.09C331.67 97.09 333.43 97.09 335.19 97.09C346.86 97.09 358.52 97.0401 370.19 97.1201C375.64 97.1601 377.8 99.2301 377.93 104.63C378.1 111.46 378.04 118.29 378.04 125.12C378.04 217.77 378.04 310.42 378.03 403.08C378.03 413.13 376.97 414.16 366.78 414.16C291.96 414.16 217.13 414.16 142.31 414.16C133.59 414.16 132.22 412.79 132.21 403.96C132.19 392.96 132.2 381.96 132.19 370.96C132.19 369.34 132.19 367.73 132.19 365.68C120.45 365.68 109.33 365.68 98.2 365.68C83.6 365.68 83.6 365.67 83.6 350.86C83.6 339.87 83.6 328.89 83.6 317.11C81.79 317.11 80.21 317.11 78.63 317.11C67.63 317.11 56.63 317.11 45.63 317.11C36.42 317.11 35.06 315.73 35.06 306.29C35.05 287.79 35.05 269.3 35.05 250.8C35.05 194.48 35.09 138.15 34.98 81.8301C34.97 77.1701 36.25 73.7101 39.64 70.3701C61.81 48.4701 83.82 26.4101 105.77 4.29005C108.67 1.37005 111.62 -0.00994605 115.83 5.39499e-05C167.66 0.130054 219.48 0.0800539 271.31 0.0800539C279.42 0.0800539 280.92 1.59005 280.93 9.70005C280.96 22.3501 280.95 34.9801 280.95 48.4601ZM267.54 303.85C267.54 206.82 267.54 110.14 267.54 13.3801C218.08 13.3801 169.01 13.3801 119.43 13.3801C119.43 15.4201 119.43 17.2101 119.43 18.9901C119.43 37.1501 119.43 55.3101 119.42 73.4701C119.42 82.6701 117.9 84.2001 108.74 84.2001C88.76 84.2001 68.78 84.2001 48.45 84.2001C48.45 157.55 48.45 230.57 48.45 303.85C121.56 303.85 194.3 303.85 267.54 303.85ZM280.95 61.8701C280.95 65.1001 280.95 67.9001 280.95 70.7001C280.95 149.53 280.95 228.35 280.95 307.18C280.95 315.62 279.46 317.12 271.12 317.12C214.96 317.12 158.8 317.12 102.63 317.12C100.71 317.12 98.8 317.12 96.97 317.12C96.97 329.33 96.97 340.76 96.97 352.26C170.21 352.26 243.13 352.26 316.3 352.26C316.3 255.34 316.3 158.76 316.3 61.8701C304.65 61.8701 293.23 61.8701 280.95 61.8701ZM145.56 400.86C218.67 400.86 291.54 400.86 364.66 400.86C364.66 303.93 364.66 207.26 364.66 110.38C352.91 110.38 341.5 110.38 329.57 110.38C329.57 112.58 329.57 114.53 329.57 116.48C329.57 195.44 329.57 274.4 329.57 353.37C329.57 364.84 328.73 365.69 317.48 365.69C262.17 365.69 206.87 365.7 151.56 365.7C149.62 365.7 147.68 365.7 145.55 365.7C145.56 377.73 145.56 389.15 145.56 400.86ZM105.91 70.9601C105.91 54.7401 105.91 39.1401 105.91 25.2201C90.75 40.2201 75.01 55.7901 59.68 70.9601C74.48 70.9601 90.1 70.9601 105.91 70.9601Z" fill="black"/>
<path d="M157.78 200.68C133.13 200.68 108.48 200.69 83.83 200.66C82.01 200.66 79.71 201.03 78.49 200.11C76.57 198.66 74.24 196.27 74.21 194.25C74.18 192.22 76.45 189.76 78.32 188.26C79.51 187.31 81.83 187.61 83.65 187.6C132.95 187.57 182.25 187.58 231.54 187.59C233.2 187.59 234.89 187.55 236.52 187.8C240.19 188.36 242.22 190.72 242.13 194.31C242.04 197.9 239.88 200.14 236.21 200.57C234.73 200.75 233.22 200.67 231.72 200.67C207.08 200.69 182.43 200.68 157.78 200.68Z" fill="black"/>
<path d="M158.12 148.89C182.77 148.89 207.42 148.89 232.07 148.9C233.73 148.9 235.85 148.39 236.96 149.21C239.02 150.73 241.6 152.91 241.88 155.09C242.13 156.97 239.86 159.7 238.01 161.15C236.69 162.19 234.2 161.92 232.24 161.92C182.77 161.95 133.3 161.95 83.8299 161.93C82.1699 161.93 79.9599 162.39 78.9799 161.52C76.9399 159.72 74.1899 157.11 74.3099 154.97C74.4299 152.88 77.5399 150.66 79.7699 149.12C80.9199 148.33 83.0099 148.89 84.6699 148.89C109.15 148.89 133.63 148.89 158.12 148.89Z" fill="black"/>
<path d="M158.25 110.05C183.57 110.05 208.89 110.04 234.2 110.06C239.12 110.07 242.09 112.47 242.22 116.34C242.36 120.37 239.23 122.98 234.1 123.07C233.1 123.09 232.1 123.07 231.1 123.07C214.78 123.07 198.45 123.08 182.13 123.08C148.98 123.08 115.84 123.08 82.69 123.07C81.69 123.07 80.67 123.16 79.7 122.99C76.11 122.34 73.93 120.04 73.97 116.5C74.01 112.99 76.11 110.61 79.8 110.13C81.28 109.94 82.79 110.05 84.29 110.05C108.94 110.05 133.59 110.05 158.25 110.05Z" fill="black"/>
<path d="M193.66 84.1999C180.34 84.1999 167.01 84.2099 153.69 84.1899C148.06 84.1799 145.02 81.7599 145.15 77.4899C145.27 73.4599 148.26 71.1799 153.63 71.1699C180.11 71.1499 206.59 71.1699 233.07 71.1799C233.4 71.1799 233.74 71.1799 234.07 71.1899C239.26 71.3399 242.29 73.8799 242.15 77.9499C242.02 81.8399 239.09 84.1699 234.12 84.1899C220.64 84.2199 207.15 84.1999 193.66 84.1999Z" fill="black"/>
<path d="M119.24 239.36C106.91 239.36 94.58 239.39 82.25 239.34C76.82 239.32 73.9 236.97 73.95 232.9C74 228.85 76.96 226.37 82.33 226.36C106.99 226.3 131.65 226.31 156.32 226.35C161.53 226.36 164.61 228.96 164.58 232.99C164.55 237.12 161.71 239.35 156.23 239.37C143.9 239.4 131.57 239.38 119.24 239.38C119.24 239.38 119.24 239.37 119.24 239.36Z" fill="black"/>
</svg>
